<svg width="1200" height="800" viewBox="0 0 1200 800" fill="none" xmlns="http://www.w3.org/2000/svg">
  <defs>
    <linearGradient id="bg2" x1="120" y1="40" x2="1080" y2="760" gradientUnits="userSpaceOnUse">
      <stop stop-color="#08111F"/>
      <stop offset="1" stop-color="#171126"/>
    </linearGradient>
    <linearGradient id="accent2" x1="300" y1="180" x2="920" y2="620" gradientUnits="userSpaceOnUse">
      <stop stop-color="#00D4AA"/>
      <stop offset="1" stop-color="#6C63FF"/>
    </linearGradient>
    <linearGradient id="panel2" x1="220" y1="210" x2="980" y2="610" gradientUnits="userSpaceOnUse">
      <stop stop-color="#101422" stop-opacity="0.96"/>
      <stop offset="1" stop-color="#1C1730" stop-opacity="0.96"/>
    </linearGradient>
  </defs>
  <rect width="1200" height="800" rx="36" fill="url(#bg2)"/>
  <circle cx="178" cy="152" r="4" fill="#6C63FF"/>
  <circle cx="244" cy="120" r="4" fill="#00D4AA"/>
  <circle cx="992" cy="146" r="4" fill="#FFD700"/>
  <circle cx="1046" cy="222" r="4" fill="#6C63FF"/>
  <rect x="160" y="180" width="880" height="440" rx="30" fill="url(#panel2)" stroke="rgba(255,255,255,0.08)"/>
  <rect x="210" y="228" width="280" height="180" rx="24" fill="#0D1627" stroke="rgba(0,212,170,0.35)"/>
  <text x="250" y="276" fill="#00D4AA" font-family="Arial, sans-serif" font-size="22" font-weight="700">Stage 1</text>
  <text x="250" y="314" fill="#F0F0F8" font-family="Arial, sans-serif" font-size="30" font-weight="700">Intent</text>
  <text x="250" y="350" fill="#8A92B2" font-family="Arial, sans-serif" font-size="18">Extract appName, entities, roles, features</text>
  <rect x="510" y="228" width="280" height="180" rx="24" fill="#0F1A2C" stroke="rgba(108,99,255,0.35)"/>
  <text x="550" y="276" fill="#6C63FF" font-family="Arial, sans-serif" font-size="22" font-weight="700">Stage 3</text>
  <text x="550" y="314" fill="#F0F0F8" font-family="Arial, sans-serif" font-size="30" font-weight="700">Schemas</text>
  <text x="550" y="350" fill="#8A92B2" font-family="Arial, sans-serif" font-size="18">UI • API • DB • Auth</text>
  <rect x="790" y="228" width="200" height="180" rx="24" fill="#0D1627" stroke="rgba(255,215,0,0.28)"/>
  <text x="830" y="276" fill="#FFD700" font-family="Arial, sans-serif" font-size="22" font-weight="700">Stage 4</text>
  <text x="830" y="314" fill="#F0F0F8" font-family="Arial, sans-serif" font-size="30" font-weight="700">Refine</text>
  <text x="830" y="350" fill="#8A92B2" font-family="Arial, sans-serif" font-size="18">Repair & consistency</text>
  <path d="M490 318H510" stroke="url(#accent2)" stroke-width="8" stroke-linecap="round"/>
  <path d="M770 318H790" stroke="url(#accent2)" stroke-width="8" stroke-linecap="round"/>
  <path d="M360 408C404 448 454 472 522 486C610 504 703 490 770 456C822 430 872 396 916 342" stroke="url(#accent2)" stroke-width="9" stroke-linecap="round" stroke-linejoin="round"/>
  <circle cx="522" cy="486" r="10" fill="#00D4AA"/>
  <circle cx="770" cy="456" r="10" fill="#6C63FF"/>
  <circle cx="916" cy="342" r="10" fill="#FFD700"/>
  <rect x="250" y="500" width="700" height="86" rx="20" fill="#0D1627" stroke="rgba(255,255,255,0.08)"/>
  <text x="290" y="553" fill="#F0F0F8" font-family="Arial, sans-serif" font-size="26" font-weight="700">Validation + Repair Engine • Runtime Executor Validator • Metrics Tracker</text>
  <text x="250" y="650" fill="#F0F0F8" font-family="Arial, sans-serif" font-size="34" font-weight="700">AI App Generator</text>
  <text x="250" y="688" fill="#8A92B2" font-family="Arial, sans-serif" font-size="20">Claude AI • Express • /app Runtime • Production-ready compiler</text>
</svg>