<svg width="1200" height="800" viewBox="0 0 1200 800" fill="none" xmlns="http://www.w3.org/2000/svg">
  <defs>
    <linearGradient id="bg" x1="120" y1="40" x2="1080" y2="760" gradientUnits="userSpaceOnUse">
      <stop stop-color="#08111F"/>
      <stop offset="1" stop-color="#152038"/>
    </linearGradient>
    <linearGradient id="accent" x1="320" y1="180" x2="900" y2="620" gradientUnits="userSpaceOnUse">
      <stop stop-color="#6C63FF"/>
      <stop offset="1" stop-color="#00D4AA"/>
    </linearGradient>
    <linearGradient id="panel" x1="220" y1="210" x2="980" y2="610" gradientUnits="userSpaceOnUse">
      <stop stop-color="#101A2D" stop-opacity="0.95"/>
      <stop offset="1" stop-color="#182640" stop-opacity="0.95"/>
    </linearGradient>
  </defs>
  <rect width="1200" height="800" rx="36" fill="url(#bg)"/>
  <circle cx="190" cy="140" r="4" fill="#00D4AA"/>
  <circle cx="255" cy="180" r="4" fill="#6C63FF"/>
  <circle cx="315" cy="120" r="4" fill="#FFD700"/>
  <circle cx="950" cy="130" r="4" fill="#00D4AA"/>
  <circle cx="1010" cy="210" r="4" fill="#6C63FF"/>
  <rect x="180" y="190" width="840" height="420" rx="30" fill="url(#panel)" stroke="rgba(255,255,255,0.08)"/>
  <rect x="232" y="240" width="360" height="280" rx="24" fill="#0D1627" stroke="rgba(108,99,255,0.35)"/>
  <path d="M260 456C308 420 330 390 362 332C392 276 441 262 484 286C528 311 542 377 570 360C592 347 609 302 640 280C687 246 741 250 796 280C856 313 897 380 934 426" stroke="url(#accent)" stroke-width="10" stroke-linecap="round" stroke-linejoin="round"/>
  <path d="M260 456H934" stroke="rgba(255,255,255,0.08)" stroke-width="2"/>
  <circle cx="362" cy="332" r="11" fill="#00D4AA"/>
  <circle cx="484" cy="286" r="11" fill="#6C63FF"/>
  <circle cx="640" cy="280" r="11" fill="#00D4AA"/>
  <circle cx="796" cy="280" r="11" fill="#FF6B6B"/>
  <rect x="646" y="240" width="236" height="280" rx="24" fill="#0F1A2C" stroke="rgba(0,212,170,0.22)"/>
  <circle cx="762" cy="338" r="86" fill="rgba(108,99,255,0.18)" stroke="rgba(108,99,255,0.45)" stroke-width="4"/>
  <path d="M762 290C734 290 710 312 710 340C710 368 734 390 762 390C790 390 814 368 814 340C814 312 790 290 762 290Z" stroke="#00D4AA" stroke-width="10"/>
  <path d="M748 337L758 351L781 321" stroke="#FFD700" stroke-width="10" stroke-linecap="round" stroke-linejoin="round"/>
  <text x="760" y="448" text-anchor="middle" fill="#F0F0F8" font-family="Arial, sans-serif" font-size="30" font-weight="700">Risk Score</text>
  <text x="760" y="485" text-anchor="middle" fill="#00D4AA" font-family="Arial, sans-serif" font-size="20" font-weight="700">History • Wellness • Store</text>
  <text x="250" y="590" fill="#F0F0F8" font-family="Arial, sans-serif" font-size="34" font-weight="700">Diabetes Prediction System</text>
  <text x="250" y="628" fill="#8A92B2" font-family="Arial, sans-serif" font-size="20">Flask API • React + Vite • SQLite • scikit-learn</text>
</svg>